<svg width="32" height="32" viewBox="0 0 32 32" fill="none" xmlns="http://www.w3.org/2000/svg">
<rect width="32" height="32" rx="6" fill="white"/>
<path d="M9 21.25H23V14.281C23 10.398 19.866 7.25 16 7.25C12.134 7.25 9 10.398 9 14.281V21.25ZM16 5.25C20.97 5.25 25 9.293 25 14.281V23.25H7V14.281C7 9.293 11.03 5.25 16 5.25ZM13.5 24.25H18.5C18.5 24.913 18.2366 25.5489 17.7678 26.0178C17.2989 26.4866 16.663 26.75 16 26.75C15.337 26.75 14.7011 26.4866 14.2322 26.0178C13.7634 25.5489 13.5 24.913 13.5 24.25Z" fill="black"/>
</svg>
