<svg width="95" height="33" viewBox="0 0 95 33" fill="none" xmlns="http://www.w3.org/2000/svg">
<rect x="0.5" y="1" width="94" height="31" rx="5.5" stroke="#1877F2"/>
<path d="M20 9.5V23.5" stroke="#1877F2" stroke-width="2" stroke-linecap="round" stroke-linejoin="round"/>
<path d="M13 16.5H27" stroke="#1877F2" stroke-width="2" stroke-linecap="round" stroke-linejoin="round"/>
<path d="M44 11.332V13.14H39.344V16.004H42.912V17.78H39.344V22.5H37.104V11.332H44ZM49.6444 22.644C48.791 22.644 48.023 22.4573 47.3404 22.084C46.6577 21.7 46.119 21.1613 45.7244 20.468C45.3404 19.7747 45.1484 18.9747 45.1484 18.068C45.1484 17.1613 45.3457 16.3613 45.7404 15.668C46.1457 14.9747 46.695 14.4413 47.3884 14.068C48.0817 13.684 48.855 13.492 49.7084 13.492C50.5617 13.492 51.335 13.684 52.0284 14.068C52.7217 14.4413 53.2657 14.9747 53.6604 15.668C54.0657 16.3613 54.2684 17.1613 54.2684 18.068C54.2684 18.9747 54.0604 19.7747 53.6444 20.468C53.239 21.1613 52.6844 21.7 51.9804 22.084C51.287 22.4573 50.5084 22.644 49.6444 22.644ZM49.6444 20.692C50.0497 20.692 50.4284 20.596 50.7804 20.404C51.143 20.2013 51.431 19.9027 51.6444 19.508C51.8577 19.1133 51.9644 18.6333 51.9644 18.068C51.9644 17.2253 51.7404 16.58 51.2924 16.132C50.855 15.6733 50.3164 15.444 49.6764 15.444C49.0364 15.444 48.4977 15.6733 48.0604 16.132C47.6337 16.58 47.4204 17.2253 47.4204 18.068C47.4204 18.9107 47.6284 19.5613 48.0444 20.02C48.471 20.468 49.0044 20.692 49.6444 20.692ZM58.2715 10.66V22.5H56.0315V10.66H58.2715ZM62.8446 10.66V22.5H60.6046V10.66H62.8446ZM69.1137 22.644C68.2604 22.644 67.4924 22.4573 66.8097 22.084C66.1271 21.7 65.5884 21.1613 65.1937 20.468C64.8097 19.7747 64.6177 18.9747 64.6177 18.068C64.6177 17.1613 64.8151 16.3613 65.2097 15.668C65.6151 14.9747 66.1644 14.4413 66.8577 14.068C67.5511 13.684 68.3244 13.492 69.1777 13.492C70.0311 13.492 70.8044 13.684 71.4977 14.068C72.1911 14.4413 72.7351 14.9747 73.1298 15.668C73.5351 16.3613 73.7378 17.1613 73.7378 18.068C73.7378 18.9747 73.5297 19.7747 73.1137 20.468C72.7084 21.1613 72.1537 21.7 71.4497 22.084C70.7564 22.4573 69.9777 22.644 69.1137 22.644ZM69.1137 20.692C69.5191 20.692 69.8977 20.596 70.2497 20.404C70.6124 20.2013 70.9004 19.9027 71.1137 19.508C71.3271 19.1133 71.4337 18.6333 71.4337 18.068C71.4337 17.2253 71.2097 16.58 70.7617 16.132C70.3244 15.6733 69.7857 15.444 69.1457 15.444C68.5057 15.444 67.9671 15.6733 67.5297 16.132C67.1031 16.58 66.8897 17.2253 66.8897 18.068C66.8897 18.9107 67.0977 19.5613 67.5137 20.02C67.9404 20.468 68.4737 20.692 69.1137 20.692ZM87.7889 13.636L85.1969 22.5H82.7809L81.1649 16.308L79.5489 22.5H77.1169L74.5089 13.636H76.7809L78.3489 20.388L80.0449 13.636H82.4129L84.0769 20.372L85.6449 13.636H87.7889Z" fill="#1877F2"/>
</svg>
