<svg width="14" height="14" viewBox="0 0 14 14" fill="none" xmlns="http://www.w3.org/2000/svg">
<g clip-path="url(#clip0_1412_1458)">
<path d="M9.62502 1.75C11.3972 1.75 12.8334 3.20833 12.8334 5.25C12.8334 9.33333 8.45835 11.6667 7.00002 12.5417C5.54169 11.6667 1.16669 9.33333 1.16669 5.25C1.16669 3.20833 2.62502 1.75 4.37502 1.75C5.46002 1.75 6.41669 2.33333 7.00002 2.91667C7.58335 2.33333 8.54002 1.75 9.62502 1.75ZM7.54485 10.8523C8.05877 10.528 8.52252 10.2054 8.95652 9.86008C10.6954 8.47758 11.6667 6.96675 11.6667 5.25C11.6667 3.87333 10.7701 2.91667 9.62502 2.91667C8.99735 2.91667 8.31835 3.24917 7.82485 3.7415L7.00002 4.56633L6.17519 3.7415C5.68169 3.24917 5.00269 2.91667 4.37502 2.91667C3.24335 2.91667 2.33335 3.88267 2.33335 5.25C2.33335 6.96733 3.30519 8.47758 5.04294 9.86008C5.47752 10.2054 5.94127 10.528 6.45519 10.8518C6.6296 10.962 6.80227 11.0676 7.00002 11.1854C7.19777 11.0676 7.37044 10.962 7.54485 10.8523Z" fill="#4E4B66"/>
</g>
<defs>
<clipPath id="clip0_1412_1458">
<rect width="14" height="14" fill="white"/>
</clipPath>
</defs>
</svg>
