<svg width="24" height="24" viewBox="0 0 24 24" fill="none" xmlns="http://www.w3.org/2000/svg">
<g clip-path="url(#clip0_78_6203)">
<path d="M13 20L23 12L13 4V9C7.477 9 3 13.477 3 19C3 19.273 3.01 19.543 3.032 19.81C4.495 17.036 7.362 15.119 10.687 15.005L11 15H13V20ZM15 13H10.966L10.619 13.007C9.334 13.05 8.095 13.317 6.943 13.773C8.41 12.075 10.58 11 13 11H15V8.161L19.798 12L15 15.839V13Z" fill="#4E4B66"/>
</g>
<defs>
<clipPath id="clip0_78_6203">
<rect width="24" height="24" fill="white" transform="matrix(-1 0 0 1 24 0)"/>
</clipPath>
</defs>
</svg>
